<?xml version="1.0" encoding="UTF-8" standalone="no"?>
<!-- Created with Inkscape (http://www.inkscape.org/) -->

<svg
   xmlns:dc="http://purl.org/dc/elements/1.1/"
   xmlns:cc="http://creativecommons.org/ns#"
   xmlns:rdf="http://www.w3.org/1999/02/22-rdf-syntax-ns#"
   xmlns:svg="http://www.w3.org/2000/svg"
   xmlns="http://www.w3.org/2000/svg"
   xmlns:sodipodi="http://sodipodi.sourceforge.net/DTD/sodipodi-0.dtd"
   xmlns:inkscape="http://www.inkscape.org/namespaces/inkscape"
   width="128"
   height="128"
   id="svg2"
   version="1.1"
   inkscape:version="0.48.4 r9939"
   sodipodi:docname="Documento nuevo 1">
  <defs
     id="defs4" />
  <sodipodi:namedview
     id="base"
     pagecolor="#ffffff"
     bordercolor="#666666"
     borderopacity="1.0"
     inkscape:pageopacity="0.0"
     inkscape:pageshadow="2"
     inkscape:zoom="1"
     inkscape:cx="230.5"
     inkscape:cy="238.09623"
     inkscape:document-units="px"
     inkscape:current-layer="g3014"
     showgrid="false"
     inkscape:window-width="1440"
     inkscape:window-height="847"
     inkscape:window-x="0"
     inkscape:window-y="32"
     inkscape:window-maximized="1" />
  <metadata
     id="metadata7">
    <rdf:RDF>
      <cc:Work
         rdf:about="">
        <dc:format>image/svg+xml</dc:format>
        <dc:type
           rdf:resource="http://purl.org/dc/dcmitype/StillImage" />
        <dc:title></dc:title>
      </cc:Work>
    </rdf:RDF>
  </metadata>
  <g
     inkscape:label="Capa 1"
     inkscape:groupmode="layer"
     id="layer1"
     transform="translate(0,-924.36218)">
    <g
       id="g3014"
       transform="matrix(0.125,0,0,-0.125,157.68688,604.68056)">
      <path
         inkscape:connector-curvature="0"
         d="m 0,0.0820312 3077.01,0 0,1156.9299688 L 0,1157.012 0,0.0820312 z"
         style="fill:#ffffff;fill-opacity:1;fill-rule:nonzero;stroke:none"
         id="path3016" />
      <g
         id="g3059"
         transform="matrix(3.0311364,0,0,3.0311364,-8673.2948,-4823.5443)">
        <path
           id="path3028"
           style="fill:#4c2b63;fill-opacity:1;fill-rule:nonzero;stroke:none"
           d="m 2682.8,512.129 c -16.17,-17.902 -39.45,-26.848 -68.65,-26.848 -29.2,0 -52.46,8.946 -68.65,26.848 -15.14,16.473 -22.68,38.398 -22.68,65.781 0,27.348 7.99,49.875 23.98,67.598 16.02,17.719 38.84,26.59 67.35,26.59 28.49,0 51.35,-8.871 67.31,-26.59 16.03,-17.723 24.04,-40.25 24.04,-67.598 0,-27.383 -7.58,-49.308 -22.7,-65.781 m -68.65,226.562 c -52.15,0 -91.44,-15.734 -121.33,-47.191 -28.28,-29.051 -42.32,-66.949 -42.32,-113.715 0,-45.59 14.02,-82.883 41.93,-111.906 29.89,-31.457 70.75,-47.188 121.72,-47.188 50.95,0 91.81,15.731 121.72,47.188 27.91,29.023 41.9,66.316 41.9,111.906 0,46.766 -13.99,84.664 -42.31,113.715 -29.91,31.457 -69.16,47.191 -121.31,47.191"
           inkscape:connector-curvature="0" />
        <path
           id="path3034"
           style="fill:#4c2b63;fill-opacity:1;fill-rule:nonzero;stroke:none"
           d="m 2599.46,524.383 c -9.96,-7.449 -18.09,-3.387 -18.09,9.062 l 0,90.5 c 0,12.442 8.13,16.508 18.09,9.035 l 54.32,-40.714 c 12.52,-9.391 12.52,-17.762 0,-27.149 l -54.32,-40.734"
           inkscape:connector-curvature="0" />
      </g>
    </g>
  </g>
</svg>
